<?xml version="1.0" standalone="no"?><!DOCTYPE svg PUBLIC "-//W3C//DTD SVG 1.1//EN" "http://www.w3.org/Graphics/SVG/1.1/DTD/svg11.dtd"><svg t="1509343618422" class="icon" style="" viewBox="0 0 1024 1024" version="1.1" xmlns="http://www.w3.org/2000/svg" p-id="1676" xmlns:xlink="http://www.w3.org/1999/xlink" width="200" height="200"><defs><style type="text/css"></style></defs><path d="M884.949572 585.300446 140.765489 585.300446c-41.131793 0-74.454736-33.431414-74.454736-74.420967 0-41.205471 33.32192-74.489528 74.454736-74.489528l744.184083 0c41.131793 0 74.417897 33.284057 74.417897 74.489528C959.367469 551.869033 926.081365 585.300446 884.949572 585.300446L884.949572 585.300446zM512.858042 957.317275c-41.099047 0-74.416873-33.284057-74.416873-74.344219L438.441169 138.753157c0-41.170678 33.317827-74.454736 74.416873-74.454736 40.989553 0 74.416873 33.283034 74.416873 74.454736L587.274916 882.973056C587.273892 924.033217 553.846572 957.317275 512.858042 957.317275L512.858042 957.317275z" p-id="1677" fill="#cccccc"></path></svg>