<?xml version="1.0" standalone="no"?><!DOCTYPE svg PUBLIC "-//W3C//DTD SVG 1.1//EN" "http://www.w3.org/Graphics/SVG/1.1/DTD/svg11.dtd"><svg t="1509332240923" class="icon" style="" viewBox="0 0 1024 1024" version="1.1" xmlns="http://www.w3.org/2000/svg" p-id="1184" xmlns:xlink="http://www.w3.org/1999/xlink" width="200" height="200"><defs><style type="text/css"></style></defs><path d="M860.119 735.696h-515.223c-14.462 0-28.249-13.044-30.105-28.501l-54.005-380.33-30.543-176.279c-5.554-45.469-45.509-81.034-91.004-81.034h-40.406c-16.637 0-30.171 13.534-30.171 30.171s13.534 30.171 30.171 30.171h40.406c14.992 0 29.323 13.482 31.298 29.417l30.607 176.915 53.793 378.805c5.501 45.415 45.005 80.98 89.956 80.98h515.223c16.637 0 30.171-13.534 30.171-30.171 0-16.609-13.534-30.144-30.171-30.144v0zM931.633 192.554c-15.882-17.974-37.754-27.865-61.535-27.865h-549.226c-16.637 0-30.171 13.534-30.171 30.171s13.534 30.171 30.171 30.171h549.226c6.482 0 11.983 2.531 16.357 7.49 6.509 7.357 9.824 19.435 8.459 30.781l-49.975 285.973c-1.857 15.231-16.398 27.798-32.398 27.89l-430.212 31.734c-8.033 0.583-15.339 4.229-20.587 10.339-5.277 6.083-7.847 13.866-7.265 21.899 1.141 15.695 14.343 27.984 30.064 27.984 0.716 0 1.472-0.025 2.214-0.093l427.971-31.629c45.018 0 84.443-34.822 89.862-79.27l50.016-285.973c3.605-29.985-4.758-59.030-22.973-79.602v0zM353.099 954.621c34.121 0 61.893-27.772 61.893-61.879 0-34.134-27.772-61.906-61.893-61.906-34.11 0-61.893 27.772-61.893 61.906 0 34.11 27.785 61.879 61.893 61.879v0zM797.205 954.621c34.095 0 61.879-27.772 61.879-61.879 0-34.134-27.772-61.906-61.879-61.906-34.134 0-61.906 27.772-61.906 61.906 0 34.11 27.785 61.879 61.906 61.879v0zM797.205 954.621z" p-id="1185" fill="#ffffff"></path></svg>