<?xml version="1.0" standalone="no"?><!DOCTYPE svg PUBLIC "-//W3C//DTD SVG 1.1//EN" "http://www.w3.org/Graphics/SVG/1.1/DTD/svg11.dtd"><svg t="1509332313836" class="icon" style="" viewBox="0 0 1024 1024" version="1.1" xmlns="http://www.w3.org/2000/svg" p-id="1480" xmlns:xlink="http://www.w3.org/1999/xlink" width="200" height="200"><defs><style type="text/css"></style></defs><path d="M511.997953 137.872091c206.625988 0 374.133026 167.501922 374.133026 374.125863 0 206.627011-167.507038 374.128933-374.133026 374.128933-206.624964 0-374.128933-167.501922-374.128933-374.128933C137.869021 305.374012 305.372989 137.872091 511.997953 137.872091M511.997953 63.046918c-247.554142 0-448.954105 201.399963-448.954105 448.952059 0 247.554142 201.399963 448.954105 448.954105 448.954105 247.557212 0 448.959222-201.399963 448.959222-448.954105C960.956152 264.446881 759.555166 63.046918 511.997953 63.046918L511.997953 63.046918z" p-id="1481" fill="#ffffff"></path><path d="M699.455369 287.919479l-102.412484 0-67.832921 130.259716c-7.762801 15.289218-13.749142 29.66053-17.955954 43.11496-3.547803-12.431124-9.534144-26.802436-17.955954-43.11496L426.794409 287.919479 324.379878 287.919479l103.410208 192.945407-86.784552 0 0 67.577095 123.362632 0 0 36.69269L341.005534 585.134671l0 67.577095 123.362632 0 0 83.476203 93.437066 0 0-83.476203 125.024481 0 0-67.577095L557.805232 585.134671l0-36.69269 125.024481 0 0-67.577095-88.11485 0L699.455369 287.919479z" p-id="1482" fill="#ffffff"></path></svg>