<?xml version="1.0" standalone="no"?><!DOCTYPE svg PUBLIC "-//W3C//DTD SVG 1.1//EN" "http://www.w3.org/Graphics/SVG/1.1/DTD/svg11.dtd"><svg t="1509334684869" class="icon" style="" viewBox="0 0 1024 1024" version="1.1" xmlns="http://www.w3.org/2000/svg" p-id="32064" xmlns:xlink="http://www.w3.org/1999/xlink" width="200" height="200"><defs><style type="text/css"></style></defs><path d="M507.12381 972.7097c-9.391182 0-18.782363-2.167196-27.089947-6.501587-17.698765-9.391182-36.842328-20.949559-56.708289-33.952734-51.2903-33.952734-104.386596-76.93545-149.897707-121.724162-51.651499-50.567901-94.273016-103.664198-123.168959-153.148501-29.257143-50.206702-44.427513-97.885009-44.427513-137.978131L105.831393 106.192593l43.343915 13.364374c33.230335 10.11358 65.738272 15.17037 96.440212 15.17037 89.216226 0 176.987654-25.283951 247.782716-71.156261l18.421164-11.919577 18.421164 11.919577c70.433862 45.87231 158.56649 71.156261 247.782716 71.156261 30.70194 0 63.209877-5.05679 96.440212-15.17037l43.343915-13.364374 0 412.850794c0 38.648325-15.892769 85.604233-45.87231 135.088536-29.618342 49.123104-73.323457 101.858201-126.780952 153.148501-46.23351 44.066314-100.774603 87.771429-153.148501 123.168959-20.22716 13.364374-39.370723 25.283951-57.069489 35.036332C526.628571 970.181305 516.87619 972.7097 507.12381 972.7097zM173.375661 519.043386c0 27.812346 12.641975 64.654674 35.397531 104.025397 25.64515 44.427513 64.293474 92.467019 111.971781 138.700529 42.621517 41.537919 92.467019 81.99224 140.145326 113.777778 16.253968 10.835979 32.146737 20.22716 46.594709 28.173545 14.809171-8.307584 30.70194-18.059965 47.678307-29.618342 49.484303-32.869136 100.413404-74.045855 144.118519-115.583774 49.123104-47.317108 89.216226-95.356614 115.944974-139.422928 23.116755-38.648325 36.119929-74.407055 36.119929-100.413404L851.346737 194.68642c-24.561552 4.695591-48.761905 7.223986-72.601058 7.223986-95.356614 0-187.462434-24.561552-266.20388-70.795062-78.741446 46.23351-170.486067 70.795062-266.20388 70.795062-23.477954 0-48.039506-2.528395-72.601058-7.223986L173.736861 519.043386z" p-id="32065" fill="#ffffff"></path><path d="M504.956614 565.999295c-81.631041 0-148.091711-66.46067-148.091711-148.091711s66.46067-148.091711 148.091711-148.091711 148.091711 66.46067 148.091711 148.091711S586.948854 565.999295 504.956614 565.999295zM504.956614 336.998942c-44.427513 0-80.908642 36.119929-80.908642 80.908642 0 44.427513 36.119929 80.908642 80.908642 80.908642 44.427513 0 80.908642-36.119929 80.908642-80.908642C585.865256 373.118871 549.745326 336.998942 504.956614 336.998942z" p-id="32066" fill="#ffffff"></path><path d="M508.929806 754.184127c-18.421164 0-33.591534-15.17037-33.591534-33.591534L475.338272 549.022928c0-18.421164 15.17037-33.591534 33.591534-33.591534 18.421164 0 33.591534 15.17037 33.591534 33.591534l0 171.930864C542.52134 739.374956 527.35097 754.184127 508.929806 754.184127z" p-id="32067" fill="#ffffff"></path><path d="M522.29418 657.743915c-18.421164 0-33.591534-15.17037-33.591534-33.591534s15.17037-33.591534 33.591534-33.591534l57.430688 0c18.421164 0 33.591534 15.17037 33.591534 33.591534s-15.17037 33.591534-33.591534 33.591534L522.29418 657.743915z" p-id="32068" fill="#ffffff"></path></svg>