<?xml version="1.0" standalone="no"?><!DOCTYPE svg PUBLIC "-//W3C//DTD SVG 1.1//EN" "http://www.w3.org/Graphics/SVG/1.1/DTD/svg11.dtd"><svg t="1509342190418" class="icon" style="" viewBox="0 0 1024 1024" version="1.1" xmlns="http://www.w3.org/2000/svg" p-id="39513" xmlns:xlink="http://www.w3.org/1999/xlink" width="200" height="200"><defs><style type="text/css"></style></defs><path d="M322.919109 560.502667c-64.914452 0-125.94034-25.279756-171.83767-71.182202C105.188202 443.422112 79.913563 382.400317 79.913563 317.496098c0-64.916499 25.27464-125.942387 71.168899-171.835623 45.89426-45.89426 106.920148-71.168899 171.836647-71.168899 64.904219 0 125.920898 25.275663 171.812087 71.169923 45.89119 45.896306 71.164806 106.921171 71.164806 171.8346 0 64.902172-25.272593 125.923968-71.163783 171.823344C448.838983 535.221888 387.821281 560.502667 322.919109 560.502667zM322.919109 144.075373c-95.624894 0-173.420725 77.79583-173.420725 173.420725 0 95.624894 77.79583 173.421748 173.420725 173.421748 95.608521 0 173.392072-77.79583 173.392072-173.421748C496.312204 221.872227 418.528654 144.075373 322.919109 144.075373z" p-id="39514" fill="#ffffff"></path><path d="M608.909655 963.218682c-19.21462 0-34.792411-15.57779-34.792411-34.792411 0-138.52803-112.686479-251.228835-251.198136-251.228835-138.52803 0-251.228835 112.700805-251.228835 251.228835 0 19.21462-15.576767 34.792411-34.792411 34.792411s-34.792411-15.57779-34.792411-34.792411c0-85.691661 33.366945-166.254511 93.953835-226.846518 60.590983-60.5961 141.157927-93.967138 226.859821-93.967138 85.686545 0 166.244278 33.372062 226.831168 93.968162 60.585867 60.594053 93.951789 141.154857 93.951789 226.845495C643.702066 947.641915 628.124276 963.218682 608.909655 963.218682z" p-id="39515" fill="#ffffff"></path><path d="M752.370021 594.329077c-95.124498 0-172.513052-77.399811-172.513052-172.537611 0-95.138824 77.388555-172.538635 172.513052-172.538635 95.122451 0 172.511006 77.400834 172.511006 172.538635C924.881027 516.929266 847.492472 594.329077 752.370021 594.329077zM752.370021 318.836629c-56.754608 0-102.928231 46.184879-102.928231 102.953813 0 56.768935 46.173622 102.95279 102.928231 102.95279 56.753585 0 102.926184-46.184879 102.926184-102.95279C855.296205 365.022531 809.123606 318.836629 752.370021 318.836629z" p-id="39516" fill="#ffffff"></path><path d="M987.163535 963.218682c-19.21462 0-34.792411-15.57779-34.792411-34.792411 0-110.282732-89.720418-200.00315-200.00008-200.00315-28.479635 0-56.037271 5.879917-81.905428 17.477047-17.537422 7.866155-38.121226 0.019443-45.981241-17.513886-7.861038-17.534352-0.020466-38.120203 17.513886-45.982264 34.881438-15.637142 72.016197-23.565718 110.37176-23.565718 72.003917 0 139.701762 28.039613 190.618409 78.954213 50.922786 50.918693 78.966493 118.620631 78.966493 190.633758C1021.955946 947.641915 1006.378156 963.218682 987.163535 963.218682z" p-id="39517" fill="#ffffff"></path></svg>