<?xml version="1.0" standalone="no"?><!DOCTYPE svg PUBLIC "-//W3C//DTD SVG 1.1//EN" "http://www.w3.org/Graphics/SVG/1.1/DTD/svg11.dtd"><svg t="1509333277720" class="icon" style="" viewBox="0 0 1024 1024" version="1.1" xmlns="http://www.w3.org/2000/svg" p-id="9347" xmlns:xlink="http://www.w3.org/1999/xlink" width="200" height="200"><defs><style type="text/css"></style></defs><path d="M928.268288 348.741632c-34.121728-84.765696-91.127808-156.976128-163.141632-208.108544-36.006912-25.562112-75.774976-45.845504-118.275072-59.73504-42.494976-13.89056-87.72096-21.376-134.525952-21.373952-62.410752-0.00512-121.998336 13.312-176.0768 37.353472-81.140736 36.069376-149.906432 96.161792-198.407168 171.599872-48.503808 75.43296-76.76416 166.339584-76.75904 263.94112 0.004096 41.389056 3.851264 82.629632 8.983552 120.498176 5.13536 37.853184 11.574272 72.352768 16.831488 99.924992 2.88256 15.13472 7.852032 28.684288 14.461952 40.4224 4.953088 8.803328 10.819584 16.57856 17.329152 23.247872 9.764864 10.010624 20.948992 17.516544 32.618496 22.510592 11.677696 4.990976 23.841792 7.513088 35.808256 7.520256 3.65056 0 7.281664-0.244736 10.877952-0.729088l0 0.003072c13.602816-1.650688 33.861632-4.110336 33.861632-4.110336l-0.003072-0.026624 44.48256-5.448704-0.149504 0.018432c7.87968-0.917504 15.368192-3.203072 22.131712-6.62016 10.14784-5.126144 18.689024-12.770304 24.768512-22.19008 3.037184-4.7104 5.453824-9.869312 7.110656-15.35488 1.656832-5.482496 2.546688-11.292672 2.545664-17.221632 0-2.5856-0.16896-5.19168-0.510976-7.79776l-32.93696-251.184128c-1.040384-7.962624-3.659776-15.471616-7.45472-22.089728-2.845696-4.969472-6.342656-9.450496-10.32704-13.369344-5.98016-5.876736-13.052928-10.499072-20.822016-13.67552-7.768064-3.1744-16.257024-4.898816-25.018368-4.898816-2.57536 0-5.174272 0.149504-7.780352 0.452608l0.001024 0-111.973376 13.053952c4.830208-37.659648 14.364672-73.706496 27.961344-107.493376 30.493696-75.778048 81.430528-140.15488 145.283072-185.476096 31.926272-22.664192 67.070976-40.571904 104.541184-52.81792 37.474304-12.244992 77.27104-18.838528 118.621184-18.840576 55.128064 0.00512 107.51488 11.717632 155.283456 32.940032C739.238912 175.49312 800.453632 228.826112 843.742208 296.164352c33.727488 52.472832 56.553472 113.369088 64.99328 179.188736L796.75904 462.298112c-2.604032-0.303104-5.202944-0.452608-7.778304-0.452608-7.786496 0-15.362048 1.36192-22.403072 3.894272-10.558464 3.802112-19.963904 10.215424-27.25376 18.783232-3.641344 4.283392-6.74304 9.112576-9.131008 14.390272-2.387968 5.2736-4.054016 10.996736-4.836352 16.964608l-32.93696 251.186176 0.001024-0.004096c-0.34304 2.609152-0.510976 5.21728-0.510976 7.800832-0.003072 7.908352 1.585152 15.593472 4.451328 22.59456 4.302848 10.51648 11.4176 19.513344 20.39296 26.233856 8.971264 6.72256 19.88608 11.184128 31.712256 12.558336l-0.14848-0.018432 44.480512 5.44768-0.003072 0.027648c0 0 20.258816 2.458624 33.861632 4.110336l0-0.003072c3.52256 0.474112 7.079936 0.715776 10.65472 0.724992-4.10624 3.331072-10.082304 7.119872-18.618368 10.938368-7.428096 3.326976-16.772096 6.668288-28.352512 9.771008-17.371136 4.660224-39.768064 8.7808-68.22912 11.708416-27.825152 2.864128-61.464576 4.590592-101.889024 4.666368l0-36.289536L404.425728 847.331328l0 112.811008 20.48 0 195.318784 0L620.224512 924.582912c55.484416-0.103424 99.201024-3.217408 133.876736-8.338432 26.440704-3.910656 47.638528-8.981504 64.843776-14.90944 12.900352-4.451328 23.565312-9.388032 32.447488-14.78144 6.658048-4.0448 12.312576-8.353792 17.063936-12.904448 7.124992-6.805504 12.188672-14.229504 15.29856-21.594112 1.558528-3.675136 2.633728-7.314432 3.305472-10.784768 0.672768-3.472384 0.946176-6.77376 0.946176-9.805824 0-0.088064-0.00512-0.172032-0.00512-0.260096 1.406976-0.907264 2.804736-1.842176 4.18304-2.83136 10.843136-7.778304 20.683776-18.103296 28.556288-30.7968 7.881728-12.689408 13.771776-27.710464 17.01376-44.736512 5.257216-27.572224 11.696128-62.071808 16.831488-99.924992 5.133312-37.86752 8.979456-79.10912 8.983552-120.498176C963.571712 467.35872 951.0144 405.250048 928.268288 348.741632zM233.82016 513.154048l0.001024 0c0.62976-0.073728 1.245184-0.10752 1.84832-0.10752 1.8176 0 3.524608 0.316416 5.07904 0.874496 2.333696 0.833536 4.277248 2.234368 5.562368 3.757056 0.647168 0.76288 1.139712 1.548288 1.50016 2.34496 0.360448 0.799744 0.595968 1.60768 0.7168 2.514944l32.93696 251.183104c0.052224 0.39936 0.075776 0.776192 0.075776 1.140736-0.003072 1.112064-0.208896 2.146304-0.644096 3.221504-0.649216 1.599488-1.880064 3.27168-3.683328 4.620288-1.80736 1.344512-4.102144 2.352128-6.956032 2.689024l-0.072704 0.009216-28.3136 3.468288-37.499904-272.2816L233.82016 513.154048zM189.111296 518.366208l37.511168 272.370688-14.364672 1.759232 0.001024 0.013312c-6.467584 0.785408-14.158848 1.718272-20.436992 2.480128l-0.25088 0.03072-0.249856 0.034816c-1.304576 0.185344-2.715648 0.28672-4.20864 0.28672-4.160512 0.00512-8.950784-0.807936-13.827072-2.65216-3.6608-1.381376-7.371776-3.330048-10.962944-5.90848-5.387264-3.873792-10.517504-9.13408-14.911488-16.202752-4.383744-7.073792-8.054784-15.993856-10.221568-27.329536-5.2224-27.374592-11.46368-60.890112-16.390144-97.215488-4.928512-36.310016-8.523776-75.409408-8.518656-113.615872 0-1.701888 0.012288-3.400704 0.03072-5.098496L189.111296 518.366208zM579.264512 919.182336 445.385728 919.182336l0-30.891008 133.878784 0L579.264512 919.182336zM754.394112 785.39264c-1.907712-0.224256-3.552256-0.74752-4.983808-1.46944-2.14528-1.079296-3.78368-2.627584-4.813824-4.231168-0.51712-0.802816-0.884736-1.611776-1.1264-2.410496-0.239616-0.799744-0.359424-1.585152-0.360448-2.420736 0-0.366592 0.023552-0.743424 0.074752-1.13664l0.001024-0.004096L776.123392 522.535936c0.161792-1.205248 0.52224-2.249728 1.12128-3.306496 0.45056-0.786432 1.04448-1.565696 1.793024-2.301952 1.119232-1.102848 2.589696-2.095104 4.289536-2.787328 1.702912-0.695296 3.6096-1.094656 5.653504-1.094656 0.603136 0 1.217536 0.034816 1.84832 0.10752l29.451264 3.433472-37.499904 272.2816-28.311552-3.468288L754.394112 785.39264zM903.849984 646.034432c-4.926464 36.325376-11.167744 69.839872-16.390144 97.215488-1.92512 10.07616-5.044224 18.243584-8.786944 24.901632-2.811904 4.993024-5.983232 9.145344-9.358336 12.606464-5.060608 5.185536-10.60352 8.833024-16.11776 11.195392-5.505024 2.363392-10.979328 3.396608-15.661056 3.390464-1.492992 0-2.904064-0.1024-4.207616-0.28672l-0.25088-0.034816-0.249856-0.03072c-6.281216-0.761856-13.966336-1.69472-20.436992-2.480128l0.002048-0.013312-14.363648-1.759232 37.511168-272.370688 76.783616 8.951808c0.019456 1.69984 0.04608 3.396608 0.04608 5.100544C912.37376 570.625024 908.77952 609.724416 903.849984 646.034432z" p-id="9348" fill="#ffffff"></path></svg>