<?xml version="1.0" standalone="no"?><!DOCTYPE svg PUBLIC "-//W3C//DTD SVG 1.1//EN" "http://www.w3.org/Graphics/SVG/1.1/DTD/svg11.dtd"><svg t="1509332297405" class="icon" style="" viewBox="0 0 1024 1024" version="1.1" xmlns="http://www.w3.org/2000/svg" p-id="1332" xmlns:xlink="http://www.w3.org/1999/xlink" width="200" height="200"><defs><style type="text/css"></style></defs><path d="M980.992 358.016l-2.016-6.016-80-198.016q-11.008-31.008-38.016-48.512t-62.016-17.504l-556.992 0q-35.008 0-61.504 16.992t-37.504 47.008l-86.016 202.016q0 2.016-2.016 4-4 15.008-7.008 29.504t-3.008 28.512q0 34.016 12 66.016t34.496 56.992 51.488 40.992l0 0 0 0q35.008 20 88 20 86.016 0 144-68 55.008 66.016 140.992 66.016t140.992-66.016q56 66.016 144 66.016 16.992 0 32.992-2.496t29.504-7.008 27.488-10.496q44.992-24.992 71.488-69.504t26.496-94.496q3.008-23.008-8-56l0 0zM860 520q-24 12-56.992 12-31.008 0-58.016-15.008t-43.008-42.016q-4-8-8-14.016-14.016-15.008-32-15.008-23.008 0-32.992 15.008-4 6.016-8 14.016-18.016 27.008-44.512 42.016t-56.512 15.008q-20 0-39.008-6.496t-34.496-19.488-26.496-31.008q-4-8-8-12-12-14.016-33.504-14.496t-32.512 12.512q-6.016 6.016-10.016 14.016-35.008 54.016-100 56.992-34.016 0-56-12l0 0q-28.992-15.008-46.016-43.488t-16.992-60.512l0-8q0-4 0.512-8t1.504-8l2.016-8q0.992-4 2.016-7.008l0-2.016 84-199.008 0.992-2.016q0.992-2.016 1.504-3.488t2.496-4 4.512-4 5.504-3.488 7.488-2.496 10.496-0.512l559.008 0q28 0 36.992 22.016l79.008 196.992 0 4q7.008 18.016 7.008 39.008 0 64-54.016 98.016l-8 4zM887.008 631.008q-14.016 0-24.512 10.016t-10.496 24.992l0 184q0 8-5.504 12.992t-12.512 4.992l-639.008 0q-8 0-13.504-4.992t-5.504-12.992l0-182.016q0-7.008-2.496-13.504t-7.008-11.008-11.008-7.488-14.496-3.008q-14.016 0-24.512 10.016t-10.496 24.992l0 182.016q0 35.008 25.504 60.512t61.504 25.504l638.016 0q36 0 61.504-25.504t25.504-62.496l0-184q0-7.008-2.016-12.992t-6.016-10.496-10.016-7.008-12.992-2.496l0 0zM784 391.008l-542.016 0q-7.008 0-13.504-2.496t-11.008-7.008-7.488-11.008-3.008-14.496q0-14.016 10.016-24t24.992-10.016l542.016 0q15.008 0 24.992 9.504t10.016 24.512-10.016 24.992-24.992 10.016l0 0z" p-id="1333" fill="#ffffff"></path></svg>