<?xml version="1.0" standalone="no"?><!DOCTYPE svg PUBLIC "-//W3C//DTD SVG 1.1//EN" "http://www.w3.org/Graphics/SVG/1.1/DTD/svg11.dtd"><svg t="1509332783056" class="icon" style="" viewBox="0 0 1024 1024" version="1.1" xmlns="http://www.w3.org/2000/svg" p-id="1962" xmlns:xlink="http://www.w3.org/1999/xlink" width="200" height="200"><defs><style type="text/css"></style></defs><path d="M649.014085 977.126761c-7.211268 0-10.816901 0-14.422535-3.605634L245.183099 728.338028 54.084507 728.338028c-18.028169 0-28.84507-14.422535-28.84507-28.84507l0-299.267606c0-18.028169 14.422535-28.84507 28.84507-28.84507l111.774648 0c18.028169 0 28.84507 14.422535 28.84507 28.84507s-14.422535 28.84507-28.84507 28.84507L86.535211 429.070423l0 237.971831 137.014085 0 0-295.661972c0-10.816901 3.605634-18.028169 14.422535-25.239437l396.619718-270.422535c7.211268-7.211268 21.633803-7.211268 28.84507 0 10.816901 3.605634 14.422535 14.422535 14.422535 25.239437l0 843.71831c0 10.816901-7.211268 21.633803-14.422535 25.239437C659.830986 977.126761 652.619718 977.126761 649.014085 977.126761zM281.239437 681.464789l338.929577 212.732394L620.169014 162.253521l-338.929577 230.760563L281.239437 681.464789z" p-id="1963" fill="#1C84C6"></path><path d="M775.211268 605.746479c-14.422535 0-25.239437-7.211268-28.84507-21.633803-3.605634-14.422535 3.605634-32.450704 21.633803-36.056338 18.028169-7.211268 32.450704-25.239437 32.450704-43.267606 0-21.633803-14.422535-39.661972-32.450704-43.267606-14.422535-3.605634-25.239437-21.633803-21.633803-36.056338 3.605634-14.422535 21.633803-25.239437 36.056338-21.633803 43.267606 14.422535 75.71831 54.084507 75.71831 100.957746 0 46.873239-32.450704 86.535211-75.71831 100.957746C778.816901 605.746479 775.211268 605.746479 775.211268 605.746479z" p-id="1964" fill="#1C84C6"></path><path d="M829.295775 739.15493c-10.816901 0-21.633803-7.211268-28.84507-18.028169-7.211268-14.422535 3.605634-32.450704 18.028169-36.056338 75.71831-28.84507 126.197183-100.957746 126.197183-180.28169s-50.478873-151.43662-126.197183-180.28169c-14.422535-7.211268-21.633803-21.633803-18.028169-36.056338 7.211268-14.422535 21.633803-21.633803 36.056338-18.028169 97.352113 36.056338 165.859155 129.802817 165.859155 234.366197 0 104.56338-64.901408 198.309859-165.859155 234.366197C836.507042 739.15493 832.901408 739.15493 829.295775 739.15493z" p-id="1965" fill="#1C84C6"></path></svg>