<?xml version="1.0" standalone="no"?><!DOCTYPE svg PUBLIC "-//W3C//DTD SVG 1.1//EN" "http://www.w3.org/Graphics/SVG/1.1/DTD/svg11.dtd"><svg t="1509345568044" class="icon" style="" viewBox="0 0 1024 1024" version="1.1" xmlns="http://www.w3.org/2000/svg" p-id="2028" xmlns:xlink="http://www.w3.org/1999/xlink" width="200" height="200"><defs><style type="text/css"></style></defs><path d="M847.52266 289.677519 177.500647 289.677519c-26.740014 0-48.416709-21.676695-48.416709-48.416709l0 0c0-26.740014 21.676695-48.416709 48.416709-48.416709l670.022013 0c26.740014 0 48.416709 21.676695 48.416709 48.416709l0 0C895.939369 268.000823 874.262674 289.677519 847.52266 289.677519z" p-id="2029" fill="#ffffff"></path><path d="M847.52266 559.699372 177.500647 559.699372c-26.740014 0-48.416709-21.676695-48.416709-48.416709l0 0c0-26.740014 21.676695-48.416709 48.416709-48.416709l670.022013 0c26.740014 0 48.416709 21.676695 48.416709 48.416709l0 0C895.939369 538.022677 874.262674 559.699372 847.52266 559.699372z" p-id="2030" fill="#ffffff"></path><path d="M847.52266 829.720202 177.500647 829.720202c-26.740014 0-48.416709-21.676695-48.416709-48.416709l0 0c0-26.740014 21.676695-48.416709 48.416709-48.416709l670.022013 0c26.740014 0 48.416709 21.676695 48.416709 48.416709l0 0C895.939369 808.043507 874.262674 829.720202 847.52266 829.720202z" p-id="2031" fill="#ffffff"></path></svg>