<?xml version="1.0" standalone="no"?><!DOCTYPE svg PUBLIC "-//W3C//DTD SVG 1.1//EN" "http://www.w3.org/Graphics/SVG/1.1/DTD/svg11.dtd"><svg t="1509345558512" class="icon" style="" viewBox="0 0 1024 1024" version="1.1" xmlns="http://www.w3.org/2000/svg" p-id="1872" xmlns:xlink="http://www.w3.org/1999/xlink" width="200" height="200"><defs><style type="text/css"></style></defs><path d="M856.800977 426.761664l-67.375503 0c-6.350638-13.685697-15.355733-42.153052-26.879184-62.434981l47.585785-46.245254c15.027252-15.027252 15.040555-38.662555 0.027629-53.662177l-54.31914-53.990658c-14.999622-14.999622-39.319517-14.835893-54.346769 0.178055l-44.931329 47.654346c-20.255323-11.510148-48.721655-20.446681-62.407352-26.797319l0-67.3622c0-21.240767-22.499433-38.430264-43.699268-38.430264l-76.818573 0c-21.213137 0-43.712571 17.189498-43.712571 38.430264l0 67.375503c-13.685697 6.350638-42.138726 15.355733-62.421678 26.865881l-46.258557-47.585785c-15.027252-15.027252-38.676881-15.027252-53.662177-0.027629l-53.990658 54.333466c-14.986319 14.986319-14.849196 39.306214 0.178055 54.346769l47.667649 44.931329c-11.523451 20.282952-20.446681 48.735981-26.797319 62.421678l-67.3622 0c-21.25407 0-38.443567 22.499433-38.443567 43.699268l0 76.818573c0 21.199835 17.189498 43.712571 38.443567 43.712571l67.375503 0c6.350638 13.685697 15.369036 42.138726 26.865881 62.421678l-47.585785 46.27186c-15.027252 15.027252-15.027252 38.649252-0.027629 53.648874l54.31914 54.004985c14.986319 14.986319 39.319517 14.835893 54.346769-0.191358l44.931329-47.667649c20.282952 11.510148 48.735981 20.446681 62.421678 26.797319l0 67.375503c0 21.240767 22.499433 38.430264 43.699268 38.430264l76.818573 0c21.199835 0 43.712571-17.189498 43.712571-38.443567l0-67.375503c13.685697-6.350638 42.138726-15.369036 62.434981-26.879184l46.258557 47.585785c15.027252 15.027252 38.649252 15.027252 53.648874 0.027629l54.004985-54.31914c14.986319-14.999622 14.835893-39.319517-0.191358-54.346769l-47.667649-44.931329c11.510148-20.282952 20.446681-48.721655 26.797319-62.407352l67.375503 0c21.240767 0 38.430264-22.499433 38.430264-43.699268l0-76.818573C895.245568 449.261097 878.05607 426.761664 856.800977 426.761664zM512.038886 681.68975c-95.459119 0-172.839487-77.380368-172.839487-172.826184 0-95.459119 77.380368-172.839487 172.839487-172.839487 95.473445 0 172.839487 77.380368 172.839487 172.839487C684.879396 604.309382 607.512331 681.68975 512.038886 681.68975z" p-id="1873" fill="#ffffff"></path></svg>