<?xml version="1.0" standalone="no"?><!DOCTYPE svg PUBLIC "-//W3C//DTD SVG 1.1//EN" "http://www.w3.org/Graphics/SVG/1.1/DTD/svg11.dtd"><svg t="1509333724062" class="icon" style="" viewBox="0 0 1024 1024" version="1.1" xmlns="http://www.w3.org/2000/svg" p-id="19500" xmlns:xlink="http://www.w3.org/1999/xlink" width="200" height="200"><defs><style type="text/css"></style></defs><path d="M414.364429 96 163.921286 96C126.411643 96 96 126.409786 96 163.921286L96 363.428571C96 379.839214 109.303643 393.142857 125.714286 393.142857 142.124929 393.142857 155.428571 379.839214 155.428571 363.428571L155.428571 189.383643C155.428571 170.631143 170.633929 155.428571 189.383643 155.428571L388.903 155.428571C407.6555 155.428571 422.857143 170.633929 422.857143 189.383643L422.857143 388.902071C422.857143 407.654571 407.651786 422.857143 388.903 422.857143L185.142857 422.857143C168.732214 422.857143 155.428571 436.160786 155.428571 452.571429 155.428571 468.982071 168.732214 482.285714 185.142857 482.285714L414.364429 482.285714C451.874071 482.285714 482.285714 451.875929 482.285714 414.364429L482.285714 163.921286C482.285714 126.411643 451.875929 96 414.364429 96ZM860.078714 96 609.635571 96C572.125929 96 541.714286 126.409786 541.714286 163.921286L541.714286 414.3635C541.714286 451.874071 572.124071 482.285714 609.635571 482.285714L860.077786 482.285714C897.588357 482.285714 928 451.875929 928 414.364429L928 163.921286C928 126.411643 897.590214 96 860.078714 96ZM868.571429 388.902071C868.571429 407.654571 853.366071 422.857143 834.617286 422.857143L635.097 422.857143C616.3445 422.857143 601.142857 407.651786 601.142857 388.902071L601.142857 189.383643C601.142857 170.631143 616.348214 155.428571 635.097 155.428571L834.616357 155.428571C853.369786 155.428571 868.571429 170.633929 868.571429 189.383643L868.571429 388.902071ZM414.364429 541.714286 163.921286 541.714286C126.411643 541.714286 96 572.124071 96 609.635571L96 860.077786C96 897.588357 126.409786 928 163.921286 928L414.3635 928C451.874071 928 482.285714 897.590214 482.285714 860.078714L482.285714 609.635571C482.285714 572.125929 451.875929 541.714286 414.364429 541.714286ZM422.857143 834.617286C422.857143 853.369786 407.651786 868.571429 388.903 868.571429L189.383643 868.571429C170.631143 868.571429 155.428571 853.366071 155.428571 834.617286L155.428571 635.097C155.428571 616.3445 170.633929 601.142857 189.383643 601.142857L388.903 601.142857C407.6555 601.142857 422.857143 616.348214 422.857143 635.097L422.857143 834.617286ZM860.078714 541.714286 609.635571 541.714286C572.125929 541.714286 541.714286 572.124071 541.714286 609.635571L541.714286 860.077786C541.714286 897.588357 572.124071 928 609.635571 928L860.077786 928C897.588357 928 928 897.590214 928 860.078714L928 609.635571C928 572.125929 897.590214 541.714286 860.078714 541.714286ZM868.571429 834.617286C868.571429 853.369786 853.366071 868.571429 834.617286 868.571429L635.097 868.571429C616.3445 868.571429 601.142857 853.366071 601.142857 834.617286L601.142857 635.097C601.142857 616.3445 616.348214 601.142857 635.097 601.142857L834.616357 601.142857C853.369786 601.142857 868.571429 616.348214 868.571429 635.097L868.571429 834.617286 868.571429 834.617286Z" p-id="19501" fill="#ffffff"></path></svg>