<?xml version="1.0" standalone="no"?><!DOCTYPE svg PUBLIC "-//W3C//DTD SVG 1.1//EN" "http://www.w3.org/Graphics/SVG/1.1/DTD/svg11.dtd"><svg t="1509342437798" class="icon" style="" viewBox="0 0 1024 1024" version="1.1" xmlns="http://www.w3.org/2000/svg" p-id="1358" xmlns:xlink="http://www.w3.org/1999/xlink" width="200" height="200"><defs><style type="text/css"></style></defs><path d="M756.222257 192.449104c-8.343015-6.89913-19.044752-11.04659-30.716582-11.04659-26.63666 0-48.229444 21.592784-48.229444 48.229444 0 14.973016 6.823406 28.351722 17.530258 37.198204l-0.054235 0.066515c0.35918 0.2415 0.713244 0.490164 1.071402 0.733711 1.51654 1.186012 3.097548 2.292206 4.752234 3.292999 84.007299 59.280128 138.882094 157.089781 138.882094 267.725554 0 180.849928-146.608056 327.457983-327.457983 327.457983s-327.457983-146.608056-327.457983-327.457983c0-109.951181 54.19532-207.238948 137.323599-266.626523l-0.152473-0.258896c14.767332-8.243755 24.759917-24.016996 24.759917-42.131563 0-26.63666-21.592784-48.229444-48.229444-48.229444-12.235672 0-23.39892 4.564969-31.902594 12.07399-107.73163 76.809363-177.99081 202.780403-177.99081 345.172437 0 233.974869 189.673897 423.648766 423.648766 423.648766s423.648766-189.673897 423.648766-423.648766C935.648766 395.623479 864.767416 269.161253 756.222257 192.449104z" p-id="1359" fill="#1C84C6"></path><path d="M560.095391 400.443251c0 26.561959-21.533432 48.095391-48.095391 48.095391l0 0c-26.561959 0-48.095391-21.533432-48.095391-48.095391L463.904609 112.254643c0-26.561959 21.533432-48.095391 48.095391-48.095391l0 0c26.561959 0 48.095391 21.533432 48.095391 48.095391L560.095391 400.443251z" p-id="1360" fill="#1C84C6"></path></svg>